<svg width="128" height="128" viewBox="0 0 128 128" fill="none" xmlns="http://www.w3.org/2000/svg">
<g clip-path="url(#clip0)">
<path d="M117.307 66.7941L108.704 62.0134V58.1223C108.704 55.5057 106.582 53.3842 103.966 53.3842C101.791 53.3842 99.9635 54.8506 99.4064 56.8468L92.1673 52.8239V49.2384C92.1673 46.6218 90.0458 44.5003 87.4292 44.5003C85.3501 44.5003 83.589 45.8406 82.9502 47.7023L76.5275 44.1331C76.0516 34.938 75.1887 26.503 73.9861 19.5025C73.0323 13.9492 71.9046 9.54752 70.6345 6.4198C69.9892 4.83195 68.0271 0 64.0006 0C59.9738 0 58.0117 4.83195 57.3667 6.4198C56.0966 9.54752 54.9689 13.9492 54.0151 19.5025C52.8128 26.503 51.9496 34.938 51.4737 44.1331L45.0507 47.7023C44.4119 45.8406 42.6502 44.5003 40.572 44.5003C37.9551 44.5003 35.8339 46.6218 35.8339 49.2384V52.8239L28.5941 56.8468C28.0368 54.8503 26.2088 53.3842 24.0349 53.3842C21.418 53.3842 19.2969 55.5057 19.2969 58.1223V62.0134L10.6934 66.7941C9.75349 67.3171 9.17041 68.3074 9.17041 69.3826V81.7365C9.17041 82.6951 9.63474 83.5947 10.4165 84.1503C11.1983 84.7058 12.2004 84.848 13.1063 84.5326L51.1933 71.2574C51.5454 83.1269 52.517 94.0733 54.0148 102.794C54.2864 104.376 54.5727 105.861 54.8721 107.253L35.0406 118.274C34.5298 118.558 34.2132 119.095 34.2132 119.68V126.391C34.2132 126.912 34.4655 127.401 34.8902 127.703C35.3148 128.004 35.8591 128.081 36.3516 127.911L59.5323 119.831C60.5978 121.173 62.0583 122.297 64.0003 122.297C65.9423 122.297 67.4028 121.173 68.468 119.831L91.6487 127.911C91.8217 127.97 92.0005 128 92.1782 128C92.5078 128 92.8344 127.899 93.1098 127.703C93.5345 127.401 93.7865 126.913 93.7865 126.391V119.68C93.7865 119.095 93.4702 118.557 92.9594 118.274L73.1279 107.253C73.427 105.862 73.7134 104.377 73.9852 102.794C75.4833 94.0739 76.4546 83.1269 76.8064 71.2574L114.894 84.5326C115.211 84.6433 115.54 84.6978 115.868 84.6978C116.475 84.6978 117.076 84.511 117.583 84.1503C118.365 83.595 118.829 82.6951 118.829 81.7365V69.3826C118.83 68.3074 118.247 67.3165 117.307 66.7941Z" fill="#A0A1B3"/>
</g>
<defs>
<clipPath id="clip0">
<rect width="128" height="128" fill="white"/>
</clipPath>
</defs>
</svg>
